<?xml version="1.0" encoding="utf-8" standalone="no"?>
<!DOCTYPE svg PUBLIC "-//W3C//DTD SVG 1.1//EN"
  "http://www.w3.org/Graphics/SVG/1.1/DTD/svg11.dtd">
<svg xmlns:xlink="http://www.w3.org/1999/xlink" width="460.8pt" height="345.6pt" viewBox="0 0 460.8 345.6" xmlns="http://www.w3.org/2000/svg" version="1.1">
 <metadata>
  <rdf:RDF xmlns:dc="http://purl.org/dc/elements/1.1/" xmlns:cc="http://creativecommons.org/ns#" xmlns:rdf="http://www.w3.org/1999/02/22-rdf-syntax-ns#">
   <cc:Work>
    <dc:type rdf:resource="http://purl.org/dc/dcmitype/StillImage"/>
    <dc:date>2023-03-09T14:07:25.224390</dc:date>
    <dc:format>image/svg+xml</dc:format>
    <dc:creator>
     <cc:Agent>
      <dc:title>Matplotlib v3.5.1, https://matplotlib.org/</dc:title>
     </cc:Agent>
    </dc:creator>
   </cc:Work>
  </rdf:RDF>
 </metadata>
 <defs>
  <style type="text/css">*{stroke-linejoin: round; stroke-linecap: butt}</style>
 </defs>
 <g id="figure_1">
  <g id="patch_1">
   <path d="M 0 345.6 
L 460.8 345.6 
L 460.8 0 
L 0 0 
L 0 345.6 
z
" style="fill: none"/>
  </g>
  <g id="axes_1">
   <g id="patch_2">
    <path d="M 57.6 307.584 
L 414.72 307.584 
L 414.72 41.472 
L 57.6 41.472 
L 57.6 307.584 
z
" style="fill: none"/>
   </g>
   <g id="matplotlib.axis_1">
    <g id="xtick_1">
     <g id="line2d_1">
      <path d="M 73.832727 307.584 
L 73.832727 41.472 
" clip-path="url(#p1c8604e79d)" style="fill: none; stroke: #b0b0b0; stroke-width: 0.8; stroke-linecap: square"/>
     </g>
     <g id="line2d_2">
      <defs>
       <path id="ma16ed0f82d" d="M 0 0 
L 0 3.5 
" style="stroke: #000000; stroke-width: 0.8"/>
      </defs>
      <g>
       <use xlink:href="#ma16ed0f82d" x="73.832727" y="307.584" style="stroke: #000000; stroke-width: 0.8"/>
      </g>
     </g>
     <g id="text_1">
      <!-- 0.0 -->
      <g transform="translate(65.881165 322.182437)scale(0.1 -0.1)">
       <defs>
        <path id="DejaVuSans-30" d="M 2034 4250 
Q 1547 4250 1301 3770 
Q 1056 3291 1056 2328 
Q 1056 1369 1301 889 
Q 1547 409 2034 409 
Q 2525 409 2770 889 
Q 3016 1369 3016 2328 
Q 3016 3291 2770 3770 
Q 2525 4250 2034 4250 
z
M 2034 4750 
Q 2819 4750 3233 4129 
Q 3647 3509 3647 2328 
Q 3647 1150 3233 529 
Q 2819 -91 2034 -91 
Q 1250 -91 836 529 
Q 422 1150 422 2328 
Q 422 3509 836 4129 
Q 1250 4750 2034 4750 
z
" transform="scale(0.015625)"/>
        <path id="DejaVuSans-2e" d="M 684 794 
L 1344 794 
L 1344 0 
L 684 0 
L 684 794 
z
" transform="scale(0.015625)"/>
       </defs>
       <use xlink:href="#DejaVuSans-30"/>
       <use xlink:href="#DejaVuSans-2e" x="63.623047"/>
       <use xlink:href="#DejaVuSans-30" x="95.410156"/>
      </g>
     </g>
    </g>
    <g id="xtick_2">
     <g id="line2d_3">
      <path d="M 138.763636 307.584 
L 138.763636 41.472 
" clip-path="url(#p1c8604e79d)" style="fill: none; stroke: #b0b0b0; stroke-width: 0.8; stroke-linecap: square"/>
     </g>
     <g id="line2d_4">
      <g>
       <use xlink:href="#ma16ed0f82d" x="138.763636" y="307.584" style="stroke: #000000; stroke-width: 0.8"/>
      </g>
     </g>
     <g id="text_2">
      <!-- 0.2 -->
      <g transform="translate(130.812074 322.182437)scale(0.1 -0.1)">
       <defs>
        <path id="DejaVuSans-32" d="M 1228 531 
L 3431 531 
L 3431 0 
L 469 0 
L 469 531 
Q 828 903 1448 1529 
Q 2069 2156 2228 2338 
Q 2531 2678 2651 2914 
Q 2772 3150 2772 3378 
Q 2772 3750 2511 3984 
Q 2250 4219 1831 4219 
Q 1534 4219 1204 4116 
Q 875 4013 500 3803 
L 500 4441 
Q 881 4594 1212 4672 
Q 1544 4750 1819 4750 
Q 2544 4750 2975 4387 
Q 3406 4025 3406 3419 
Q 3406 3131 3298 2873 
Q 3191 2616 2906 2266 
Q 2828 2175 2409 1742 
Q 1991 1309 1228 531 
z
" transform="scale(0.015625)"/>
       </defs>
       <use xlink:href="#DejaVuSans-30"/>
       <use xlink:href="#DejaVuSans-2e" x="63.623047"/>
       <use xlink:href="#DejaVuSans-32" x="95.410156"/>
      </g>
     </g>
    </g>
    <g id="xtick_3">
     <g id="line2d_5">
      <path d="M 203.694545 307.584 
L 203.694545 41.472 
" clip-path="url(#p1c8604e79d)" style="fill: none; stroke: #b0b0b0; stroke-width: 0.8; stroke-linecap: square"/>
     </g>
     <g id="line2d_6">
      <g>
       <use xlink:href="#ma16ed0f82d" x="203.694545" y="307.584" style="stroke: #000000; stroke-width: 0.8"/>
      </g>
     </g>
     <g id="text_3">
      <!-- 0.4 -->
      <g transform="translate(195.742983 322.182437)scale(0.1 -0.1)">
       <defs>
        <path id="DejaVuSans-34" d="M 2419 4116 
L 825 1625 
L 2419 1625 
L 2419 4116 
z
M 2253 4666 
L 3047 4666 
L 3047 1625 
L 3713 1625 
L 3713 1100 
L 3047 1100 
L 3047 0 
L 2419 0 
L 2419 1100 
L 313 1100 
L 313 1709 
L 2253 4666 
z
" transform="scale(0.015625)"/>
       </defs>
       <use xlink:href="#DejaVuSans-30"/>
       <use xlink:href="#DejaVuSans-2e" x="63.623047"/>
       <use xlink:href="#DejaVuSans-34" x="95.410156"/>
      </g>
     </g>
    </g>
    <g id="xtick_4">
     <g id="line2d_7">
      <path d="M 268.625455 307.584 
L 268.625455 41.472 
" clip-path="url(#p1c8604e79d)" style="fill: none; stroke: #b0b0b0; stroke-width: 0.8; stroke-linecap: square"/>
     </g>
     <g id="line2d_8">
      <g>
       <use xlink:href="#ma16ed0f82d" x="268.625455" y="307.584" style="stroke: #000000; stroke-width: 0.8"/>
      </g>
     </g>
     <g id="text_4">
      <!-- 0.6 -->
      <g transform="translate(260.673892 322.182437)scale(0.1 -0.1)">
       <defs>
        <path id="DejaVuSans-36" d="M 2113 2584 
Q 1688 2584 1439 2293 
Q 1191 2003 1191 1497 
Q 1191 994 1439 701 
Q 1688 409 2113 409 
Q 2538 409 2786 701 
Q 3034 994 3034 1497 
Q 3034 2003 2786 2293 
Q 2538 2584 2113 2584 
z
M 3366 4563 
L 3366 3988 
Q 3128 4100 2886 4159 
Q 2644 4219 2406 4219 
Q 1781 4219 1451 3797 
Q 1122 3375 1075 2522 
Q 1259 2794 1537 2939 
Q 1816 3084 2150 3084 
Q 2853 3084 3261 2657 
Q 3669 2231 3669 1497 
Q 3669 778 3244 343 
Q 2819 -91 2113 -91 
Q 1303 -91 875 529 
Q 447 1150 447 2328 
Q 447 3434 972 4092 
Q 1497 4750 2381 4750 
Q 2619 4750 2861 4703 
Q 3103 4656 3366 4563 
z
" transform="scale(0.015625)"/>
       </defs>
       <use xlink:href="#DejaVuSans-30"/>
       <use xlink:href="#DejaVuSans-2e" x="63.623047"/>
       <use xlink:href="#DejaVuSans-36" x="95.410156"/>
      </g>
     </g>
    </g>
    <g id="xtick_5">
     <g id="line2d_9">
      <path d="M 333.556364 307.584 
L 333.556364 41.472 
" clip-path="url(#p1c8604e79d)" style="fill: none; stroke: #b0b0b0; stroke-width: 0.8; stroke-linecap: square"/>
     </g>
     <g id="line2d_10">
      <g>
       <use xlink:href="#ma16ed0f82d" x="333.556364" y="307.584" style="stroke: #000000; stroke-width: 0.8"/>
      </g>
     </g>
     <g id="text_5">
      <!-- 0.8 -->
      <g transform="translate(325.604801 322.182437)scale(0.1 -0.1)">
       <defs>
        <path id="DejaVuSans-38" d="M 2034 2216 
Q 1584 2216 1326 1975 
Q 1069 1734 1069 1313 
Q 1069 891 1326 650 
Q 1584 409 2034 409 
Q 2484 409 2743 651 
Q 3003 894 3003 1313 
Q 3003 1734 2745 1975 
Q 2488 2216 2034 2216 
z
M 1403 2484 
Q 997 2584 770 2862 
Q 544 3141 544 3541 
Q 544 4100 942 4425 
Q 1341 4750 2034 4750 
Q 2731 4750 3128 4425 
Q 3525 4100 3525 3541 
Q 3525 3141 3298 2862 
Q 3072 2584 2669 2484 
Q 3125 2378 3379 2068 
Q 3634 1759 3634 1313 
Q 3634 634 3220 271 
Q 2806 -91 2034 -91 
Q 1263 -91 848 271 
Q 434 634 434 1313 
Q 434 1759 690 2068 
Q 947 2378 1403 2484 
z
M 1172 3481 
Q 1172 3119 1398 2916 
Q 1625 2713 2034 2713 
Q 2441 2713 2670 2916 
Q 2900 3119 2900 3481 
Q 2900 3844 2670 4047 
Q 2441 4250 2034 4250 
Q 1625 4250 1398 4047 
Q 1172 3844 1172 3481 
z
" transform="scale(0.015625)"/>
       </defs>
       <use xlink:href="#DejaVuSans-30"/>
       <use xlink:href="#DejaVuSans-2e" x="63.623047"/>
       <use xlink:href="#DejaVuSans-38" x="95.410156"/>
      </g>
     </g>
    </g>
    <g id="xtick_6">
     <g id="line2d_11">
      <path d="M 398.487273 307.584 
L 398.487273 41.472 
" clip-path="url(#p1c8604e79d)" style="fill: none; stroke: #b0b0b0; stroke-width: 0.8; stroke-linecap: square"/>
     </g>
     <g id="line2d_12">
      <g>
       <use xlink:href="#ma16ed0f82d" x="398.487273" y="307.584" style="stroke: #000000; stroke-width: 0.8"/>
      </g>
     </g>
     <g id="text_6">
      <!-- 1.0 -->
      <g transform="translate(390.53571 322.182437)scale(0.1 -0.1)">
       <defs>
        <path id="DejaVuSans-31" d="M 794 531 
L 1825 531 
L 1825 4091 
L 703 3866 
L 703 4441 
L 1819 4666 
L 2450 4666 
L 2450 531 
L 3481 531 
L 3481 0 
L 794 0 
L 794 531 
z
" transform="scale(0.015625)"/>
       </defs>
       <use xlink:href="#DejaVuSans-31"/>
       <use xlink:href="#DejaVuSans-2e" x="63.623047"/>
       <use xlink:href="#DejaVuSans-30" x="95.410156"/>
      </g>
     </g>
    </g>
    <g id="text_7">
     <!-- $x$ -->
     <g transform="translate(233.16 335.860562)scale(0.1 -0.1)">
      <defs>
       <path id="DejaVuSans-Oblique-78" d="M 3841 3500 
L 2234 1784 
L 3219 0 
L 2559 0 
L 1819 1388 
L 531 0 
L -166 0 
L 1556 1844 
L 641 3500 
L 1300 3500 
L 1972 2234 
L 3144 3500 
L 3841 3500 
z
" transform="scale(0.015625)"/>
      </defs>
      <use xlink:href="#DejaVuSans-Oblique-78" transform="translate(0 0.3125)"/>
     </g>
    </g>
   </g>
   <g id="matplotlib.axis_2">
    <g id="ytick_1">
     <g id="line2d_13">
      <path d="M 57.6 295.488 
L 414.72 295.488 
" clip-path="url(#p1c8604e79d)" style="fill: none; stroke: #b0b0b0; stroke-width: 0.8; stroke-linecap: square"/>
     </g>
     <g id="line2d_14">
      <defs>
       <path id="ma40732de6c" d="M 0 0 
L -3.5 0 
" style="stroke: #000000; stroke-width: 0.8"/>
      </defs>
      <g>
       <use xlink:href="#ma40732de6c" x="57.6" y="295.488" style="stroke: #000000; stroke-width: 0.8"/>
      </g>
     </g>
     <g id="text_8">
      <!-- 0 -->
      <g transform="translate(44.2375 299.287219)scale(0.1 -0.1)">
       <use xlink:href="#DejaVuSans-30"/>
      </g>
     </g>
    </g>
    <g id="ytick_2">
     <g id="line2d_15">
      <path d="M 57.6 262.379836 
L 414.72 262.379836 
" clip-path="url(#p1c8604e79d)" style="fill: none; stroke: #b0b0b0; stroke-width: 0.8; stroke-linecap: square"/>
     </g>
     <g id="line2d_16">
      <g>
       <use xlink:href="#ma40732de6c" x="57.6" y="262.379836" style="stroke: #000000; stroke-width: 0.8"/>
      </g>
     </g>
     <g id="text_9">
      <!-- 2 -->
      <g transform="translate(44.2375 266.179054)scale(0.1 -0.1)">
       <use xlink:href="#DejaVuSans-32"/>
      </g>
     </g>
    </g>
    <g id="ytick_3">
     <g id="line2d_17">
      <path d="M 57.6 229.271671 
L 414.72 229.271671 
" clip-path="url(#p1c8604e79d)" style="fill: none; stroke: #b0b0b0; stroke-width: 0.8; stroke-linecap: square"/>
     </g>
     <g id="line2d_18">
      <g>
       <use xlink:href="#ma40732de6c" x="57.6" y="229.271671" style="stroke: #000000; stroke-width: 0.8"/>
      </g>
     </g>
     <g id="text_10">
      <!-- 4 -->
      <g transform="translate(44.2375 233.07089)scale(0.1 -0.1)">
       <use xlink:href="#DejaVuSans-34"/>
      </g>
     </g>
    </g>
    <g id="ytick_4">
     <g id="line2d_19">
      <path d="M 57.6 196.163507 
L 414.72 196.163507 
" clip-path="url(#p1c8604e79d)" style="fill: none; stroke: #b0b0b0; stroke-width: 0.8; stroke-linecap: square"/>
     </g>
     <g id="line2d_20">
      <g>
       <use xlink:href="#ma40732de6c" x="57.6" y="196.163507" style="stroke: #000000; stroke-width: 0.8"/>
      </g>
     </g>
     <g id="text_11">
      <!-- 6 -->
      <g transform="translate(44.2375 199.962725)scale(0.1 -0.1)">
       <use xlink:href="#DejaVuSans-36"/>
      </g>
     </g>
    </g>
    <g id="ytick_5">
     <g id="line2d_21">
      <path d="M 57.6 163.055342 
L 414.72 163.055342 
" clip-path="url(#p1c8604e79d)" style="fill: none; stroke: #b0b0b0; stroke-width: 0.8; stroke-linecap: square"/>
     </g>
     <g id="line2d_22">
      <g>
       <use xlink:href="#ma40732de6c" x="57.6" y="163.055342" style="stroke: #000000; stroke-width: 0.8"/>
      </g>
     </g>
     <g id="text_12">
      <!-- 8 -->
      <g transform="translate(44.2375 166.854561)scale(0.1 -0.1)">
       <use xlink:href="#DejaVuSans-38"/>
      </g>
     </g>
    </g>
    <g id="ytick_6">
     <g id="line2d_23">
      <path d="M 57.6 129.947178 
L 414.72 129.947178 
" clip-path="url(#p1c8604e79d)" style="fill: none; stroke: #b0b0b0; stroke-width: 0.8; stroke-linecap: square"/>
     </g>
     <g id="line2d_24">
      <g>
       <use xlink:href="#ma40732de6c" x="57.6" y="129.947178" style="stroke: #000000; stroke-width: 0.8"/>
      </g>
     </g>
     <g id="text_13">
      <!-- 10 -->
      <g transform="translate(37.875 133.746396)scale(0.1 -0.1)">
       <use xlink:href="#DejaVuSans-31"/>
       <use xlink:href="#DejaVuSans-30" x="63.623047"/>
      </g>
     </g>
    </g>
    <g id="ytick_7">
     <g id="line2d_25">
      <path d="M 57.6 96.839013 
L 414.72 96.839013 
" clip-path="url(#p1c8604e79d)" style="fill: none; stroke: #b0b0b0; stroke-width: 0.8; stroke-linecap: square"/>
     </g>
     <g id="line2d_26">
      <g>
       <use xlink:href="#ma40732de6c" x="57.6" y="96.839013" style="stroke: #000000; stroke-width: 0.8"/>
      </g>
     </g>
     <g id="text_14">
      <!-- 12 -->
      <g transform="translate(37.875 100.638232)scale(0.1 -0.1)">
       <use xlink:href="#DejaVuSans-31"/>
       <use xlink:href="#DejaVuSans-32" x="63.623047"/>
      </g>
     </g>
    </g>
    <g id="ytick_8">
     <g id="line2d_27">
      <path d="M 57.6 63.730849 
L 414.72 63.730849 
" clip-path="url(#p1c8604e79d)" style="fill: none; stroke: #b0b0b0; stroke-width: 0.8; stroke-linecap: square"/>
     </g>
     <g id="line2d_28">
      <g>
       <use xlink:href="#ma40732de6c" x="57.6" y="63.730849" style="stroke: #000000; stroke-width: 0.8"/>
      </g>
     </g>
     <g id="text_15">
      <!-- 14 -->
      <g transform="translate(37.875 67.530068)scale(0.1 -0.1)">
       <use xlink:href="#DejaVuSans-31"/>
       <use xlink:href="#DejaVuSans-34" x="63.623047"/>
      </g>
     </g>
    </g>
   </g>
   <g id="line2d_29">
    <path d="M 73.832727 295.277175 
L 190.113009 295.187903 
L 191.043251 53.568 
L 191.973493 184.545351 
L 192.903735 212.017938 
L 193.833978 225.47369 
L 194.76422 233.788098 
L 195.694462 239.551033 
L 196.624704 243.83099 
L 197.554947 247.159501 
L 198.485189 249.834569 
L 199.415431 252.037844 
L 200.345673 253.887138 
L 202.206158 256.820892 
L 204.066642 259.040683 
L 205.927127 260.769586 
L 207.787611 262.141391 
L 209.648096 263.241314 
L 211.50858 264.125988 
L 214.299307 265.130697 
L 217.090034 265.81946 
L 219.880761 266.238729 
L 222.671487 266.408634 
L 225.462214 266.326561 
L 228.252941 265.964544 
L 230.113425 265.538103 
L 231.97391 264.92718 
L 233.834394 264.080061 
L 235.694879 262.912398 
L 236.625121 262.166586 
L 237.555363 261.278356 
L 238.485606 260.208893 
L 239.415848 258.901813 
L 240.34609 257.271529 
L 241.276332 255.180579 
L 242.206575 252.390869 
L 243.136817 248.444003 
L 244.067059 242.304113 
L 244.997301 230.882443 
L 245.927544 196.318078 
L 246.857786 284.689077 
L 257.090451 285.086484 
L 268.253358 285.295689 
L 280.346507 285.300129 
L 292.439656 285.075573 
L 302.672321 284.675881 
L 311.974743 284.089953 
L 319.416681 283.403618 
L 325.928377 282.56772 
L 330.579588 281.772879 
L 335.2308 280.733646 
L 338.021526 279.943358 
L 338.951769 108.05801 
L 339.882011 200.86131 
L 340.812253 219.301833 
L 341.742495 227.902026 
L 342.672738 232.882428 
L 343.60298 236.040357 
L 344.533222 238.108464 
L 345.463464 239.443818 
L 346.393707 240.239089 
L 347.323949 240.603368 
L 348.254191 240.597652 
L 349.184433 240.251587 
L 350.114676 239.571253 
L 351.044918 238.541776 
L 351.97516 237.126072 
L 352.905402 235.259512 
L 353.835645 232.838735 
L 354.765887 229.700194 
L 355.696129 225.578101 
L 356.626371 220.015814 
L 357.556614 212.156516 
L 358.486856 200.156709 
L 359.417098 179.023048 
L 360.34734 126.810988 
L 361.277583 295.488 
L 398.487273 295.488 
L 398.487273 295.488 
" clip-path="url(#p1c8604e79d)" style="fill: none; stroke: #1f77b4; stroke-width: 1.5; stroke-linecap: square"/>
   </g>
   <g id="line2d_30">
    <path d="M 73.832727 295.277175 
L 190.113009 295.187903 
L 191.043251 53.568 
L 191.973493 184.545351 
L 192.903735 212.017938 
L 193.833978 225.47369 
L 194.76422 233.788098 
L 195.694462 239.551033 
L 196.624704 243.83099 
L 197.554947 247.159501 
L 198.485189 249.834569 
L 199.415431 252.037844 
L 200.345673 253.887138 
L 202.206158 256.820892 
L 204.066642 259.040683 
L 205.927127 260.769586 
L 207.787611 262.141391 
L 209.648096 263.241314 
L 211.50858 264.125988 
L 214.299307 265.130697 
L 217.090034 265.81946 
L 219.880761 266.238729 
L 222.671487 266.408634 
L 225.462214 266.326561 
L 228.252941 265.964544 
L 230.113425 265.538103 
L 231.97391 264.92718 
L 233.834394 264.080061 
L 235.694879 262.912398 
L 236.625121 262.166586 
L 237.555363 261.278356 
L 238.485606 260.208893 
L 239.415848 258.901813 
L 240.34609 257.271529 
L 241.276332 255.180579 
L 242.206575 252.390869 
L 243.136817 248.444003 
L 244.067059 242.304113 
L 244.997301 230.882443 
L 245.927544 196.318078 
L 246.857786 284.689077 
L 257.090451 285.086484 
L 268.253358 285.295689 
L 280.346507 285.300129 
L 292.439656 285.075573 
L 302.672321 284.675881 
L 311.974743 284.089953 
L 319.416681 283.403618 
L 325.928377 282.56772 
L 330.579588 281.772879 
L 335.2308 280.733646 
L 338.021526 279.943358 
L 338.951769 108.05801 
L 339.882011 200.86131 
L 340.812253 219.301833 
L 341.742495 227.902026 
L 342.672738 232.882428 
L 343.60298 236.040357 
L 344.533222 238.108464 
L 345.463464 239.443818 
L 346.393707 240.239089 
L 347.323949 240.603368 
L 348.254191 240.597652 
L 349.184433 240.251587 
L 350.114676 239.571253 
L 351.044918 238.541776 
L 351.97516 237.126072 
L 352.905402 235.259512 
L 353.835645 232.838735 
L 354.765887 229.700194 
L 355.696129 225.578101 
L 356.626371 220.015814 
L 357.556614 212.156516 
L 358.486856 200.156709 
L 359.417098 179.023048 
L 360.34734 126.810988 
L 361.277583 295.488 
L 398.487273 295.488 
L 398.487273 295.488 
" clip-path="url(#p1c8604e79d)" style="fill: none; stroke: #ff7f0e; stroke-width: 1.5; stroke-linecap: square"/>
   </g>
   <g id="line2d_31">
    <path d="M 73.832727 295.277175 
L 190.113009 295.187903 
L 191.043251 53.568 
L 191.973493 184.545351 
L 192.903735 212.017938 
L 193.833978 225.47369 
L 194.76422 233.788098 
L 195.694462 239.551033 
L 196.624704 243.83099 
L 197.554947 247.159501 
L 198.485189 249.834569 
L 199.415431 252.037844 
L 200.345673 253.887138 
L 202.206158 256.820892 
L 204.066642 259.040683 
L 205.927127 260.769586 
L 207.787611 262.141391 
L 209.648096 263.241314 
L 211.50858 264.125988 
L 214.299307 265.130697 
L 217.090034 265.81946 
L 219.880761 266.238729 
L 222.671487 266.408634 
L 225.462214 266.326561 
L 228.252941 265.964544 
L 230.113425 265.538103 
L 231.97391 264.92718 
L 233.834394 264.080061 
L 235.694879 262.912398 
L 236.625121 262.166586 
L 237.555363 261.278356 
L 238.485606 260.208893 
L 239.415848 258.901813 
L 240.34609 257.271529 
L 241.276332 255.180579 
L 242.206575 252.390869 
L 243.136817 248.444003 
L 244.067059 242.304113 
L 244.997301 230.882443 
L 245.927544 196.318078 
L 246.857786 284.689077 
L 257.090451 285.086484 
L 268.253358 285.295689 
L 280.346507 285.300129 
L 292.439656 285.075573 
L 302.672321 284.675881 
L 311.974743 284.089953 
L 319.416681 283.403618 
L 325.928377 282.56772 
L 330.579588 281.772879 
L 335.2308 280.733646 
L 338.021526 279.943358 
L 338.951769 108.05801 
L 339.882011 200.86131 
L 340.812253 219.301833 
L 341.742495 227.902026 
L 342.672738 232.882428 
L 343.60298 236.040357 
L 344.533222 238.108464 
L 345.463464 239.443818 
L 346.393707 240.239089 
L 347.323949 240.603368 
L 348.254191 240.597652 
L 349.184433 240.251587 
L 350.114676 239.571253 
L 351.044918 238.541776 
L 351.97516 237.126072 
L 352.905402 235.259512 
L 353.835645 232.838735 
L 354.765887 229.700194 
L 355.696129 225.578101 
L 356.626371 220.015814 
L 357.556614 212.156516 
L 358.486856 200.156709 
L 359.417098 179.023048 
L 360.34734 126.810988 
L 361.277583 295.488 
L 398.487273 295.488 
L 398.487273 295.488 
" clip-path="url(#p1c8604e79d)" style="fill: none; stroke: #2ca02c; stroke-width: 1.5; stroke-linecap: square"/>
   </g>
   <g id="line2d_32">
    <path d="M 73.832727 295.277175 
L 190.113009 295.187903 
L 191.043251 53.568 
L 191.973493 184.545351 
L 192.903735 212.017938 
L 193.833978 225.47369 
L 194.76422 233.788098 
L 195.694462 239.551033 
L 196.624704 243.83099 
L 197.554947 247.159501 
L 198.485189 249.834569 
L 199.415431 252.037844 
L 200.345673 253.887138 
L 202.206158 256.820892 
L 204.066642 259.040683 
L 205.927127 260.769586 
L 207.787611 262.141391 
L 209.648096 263.241314 
L 211.50858 264.125988 
L 214.299307 265.130697 
L 217.090034 265.81946 
L 219.880761 266.238729 
L 222.671487 266.408634 
L 225.462214 266.326561 
L 228.252941 265.964544 
L 230.113425 265.538103 
L 231.97391 264.92718 
L 233.834394 264.080061 
L 235.694879 262.912398 
L 236.625121 262.166586 
L 237.555363 261.278356 
L 238.485606 260.208893 
L 239.415848 258.901813 
L 240.34609 257.271529 
L 241.276332 255.180579 
L 242.206575 252.390869 
L 243.136817 248.444003 
L 244.067059 242.304113 
L 244.997301 230.882443 
L 245.927544 196.318078 
L 246.857786 284.689077 
L 257.090451 285.086484 
L 268.253358 285.295689 
L 280.346507 285.300129 
L 292.439656 285.075573 
L 302.672321 284.675881 
L 311.974743 284.089953 
L 319.416681 283.403618 
L 325.928377 282.56772 
L 330.579588 281.772879 
L 335.2308 280.733646 
L 338.021526 279.943358 
L 338.951769 108.05801 
L 339.882011 200.86131 
L 340.812253 219.301833 
L 341.742495 227.902026 
L 342.672738 232.882428 
L 343.60298 236.040357 
L 344.533222 238.108464 
L 345.463464 239.443818 
L 346.393707 240.239089 
L 347.323949 240.603368 
L 348.254191 240.597652 
L 349.184433 240.251587 
L 350.114676 239.571253 
L 351.044918 238.541776 
L 351.97516 237.126072 
L 352.905402 235.259512 
L 353.835645 232.838735 
L 354.765887 229.700194 
L 355.696129 225.578101 
L 356.626371 220.015814 
L 357.556614 212.156516 
L 358.486856 200.156709 
L 359.417098 179.023048 
L 360.34734 126.810988 
L 361.277583 295.488 
L 398.487273 295.488 
L 398.487273 295.488 
" clip-path="url(#p1c8604e79d)" style="fill: none; stroke: #d62728; stroke-width: 1.5; stroke-linecap: square"/>
   </g>
   <g id="line2d_33">
    <path d="M 73.832727 295.277175 
L 190.113009 295.187903 
L 191.043251 53.568 
L 191.973493 184.545351 
L 192.903735 212.017938 
L 193.833978 225.47369 
L 194.76422 233.788098 
L 195.694462 239.551033 
L 196.624704 243.83099 
L 197.554947 247.159501 
L 198.485189 249.834569 
L 199.415431 252.037844 
L 200.345673 253.887138 
L 202.206158 256.820892 
L 204.066642 259.040683 
L 205.927127 260.769586 
L 207.787611 262.141391 
L 209.648096 263.241314 
L 211.50858 264.125988 
L 214.299307 265.130697 
L 217.090034 265.81946 
L 219.880761 266.238729 
L 222.671487 266.408634 
L 225.462214 266.326561 
L 228.252941 265.964544 
L 230.113425 265.538103 
L 231.97391 264.92718 
L 233.834394 264.080061 
L 235.694879 262.912398 
L 236.625121 262.166586 
L 237.555363 261.278356 
L 238.485606 260.208893 
L 239.415848 258.901813 
L 240.34609 257.271529 
L 241.276332 255.180579 
L 242.206575 252.390869 
L 243.136817 248.444003 
L 244.067059 242.304113 
L 244.997301 230.882443 
L 245.927544 196.318078 
L 246.857786 284.689077 
L 257.090451 285.086484 
L 268.253358 285.295689 
L 280.346507 285.300129 
L 292.439656 285.075573 
L 302.672321 284.675881 
L 311.974743 284.089953 
L 319.416681 283.403618 
L 325.928377 282.56772 
L 330.579588 281.772879 
L 335.2308 280.733646 
L 338.021526 279.943358 
L 338.951769 108.05801 
L 339.882011 200.86131 
L 340.812253 219.301833 
L 341.742495 227.902026 
L 342.672738 232.882428 
L 343.60298 236.040357 
L 344.533222 238.108464 
L 345.463464 239.443818 
L 346.393707 240.239089 
L 347.323949 240.603368 
L 348.254191 240.597652 
L 349.184433 240.251587 
L 350.114676 239.571253 
L 351.044918 238.541776 
L 351.97516 237.126072 
L 352.905402 235.259512 
L 353.835645 232.838735 
L 354.765887 229.700194 
L 355.696129 225.578101 
L 356.626371 220.015814 
L 357.556614 212.156516 
L 358.486856 200.156709 
L 359.417098 179.023048 
L 360.34734 126.810988 
L 361.277583 295.488 
L 398.487273 295.488 
L 398.487273 295.488 
" clip-path="url(#p1c8604e79d)" style="fill: none; stroke: #9467bd; stroke-width: 1.5; stroke-linecap: square"/>
   </g>
   <g id="line2d_34">
    <path d="M 73.832727 295.277175 
L 190.113009 295.187903 
L 191.043251 53.568 
L 191.973493 184.545351 
L 192.903735 212.017938 
L 193.833978 225.47369 
L 194.76422 233.788098 
L 195.694462 239.551033 
L 196.624704 243.83099 
L 197.554947 247.159501 
L 198.485189 249.834569 
L 199.415431 252.037844 
L 200.345673 253.887138 
L 202.206158 256.820892 
L 204.066642 259.040683 
L 205.927127 260.769586 
L 207.787611 262.141391 
L 209.648096 263.241314 
L 211.50858 264.125988 
L 214.299307 265.130697 
L 217.090034 265.81946 
L 219.880761 266.238729 
L 222.671487 266.408634 
L 225.462214 266.326561 
L 228.252941 265.964544 
L 230.113425 265.538103 
L 231.97391 264.92718 
L 233.834394 264.080061 
L 235.694879 262.912398 
L 236.625121 262.166586 
L 237.555363 261.278356 
L 238.485606 260.208893 
L 239.415848 258.901813 
L 240.34609 257.271529 
L 241.276332 255.180579 
L 242.206575 252.390869 
L 243.136817 248.444003 
L 244.067059 242.304113 
L 244.997301 230.882443 
L 245.927544 196.318078 
L 246.857786 284.689077 
L 257.090451 285.086484 
L 268.253358 285.295689 
L 280.346507 285.300129 
L 292.439656 285.075573 
L 302.672321 284.675881 
L 311.974743 284.089953 
L 319.416681 283.403618 
L 325.928377 282.56772 
L 330.579588 281.772879 
L 335.2308 280.733646 
L 338.021526 279.943358 
L 338.951769 108.05801 
L 339.882011 200.86131 
L 340.812253 219.301833 
L 341.742495 227.902026 
L 342.672738 232.882428 
L 343.60298 236.040357 
L 344.533222 238.108464 
L 345.463464 239.443818 
L 346.393707 240.239089 
L 347.323949 240.603368 
L 348.254191 240.597652 
L 349.184433 240.251587 
L 350.114676 239.571253 
L 351.044918 238.541776 
L 351.97516 237.126072 
L 352.905402 235.259512 
L 353.835645 232.838735 
L 354.765887 229.700194 
L 355.696129 225.578101 
L 356.626371 220.015814 
L 357.556614 212.156516 
L 358.486856 200.156709 
L 359.417098 179.023048 
L 360.34734 126.810988 
L 361.277583 295.488 
L 398.487273 295.488 
L 398.487273 295.488 
" clip-path="url(#p1c8604e79d)" style="fill: none; stroke: #8c564b; stroke-width: 1.5; stroke-linecap: square"/>
   </g>
   <g id="line2d_35">
    <path d="M 73.832727 295.277175 
L 190.113009 295.187903 
L 191.043251 53.568 
L 191.973493 184.545351 
L 192.903735 212.017938 
L 193.833978 225.47369 
L 194.76422 233.788098 
L 195.694462 239.551033 
L 196.624704 243.83099 
L 197.554947 247.159501 
L 198.485189 249.834569 
L 199.415431 252.037844 
L 200.345673 253.887138 
L 202.206158 256.820892 
L 204.066642 259.040683 
L 205.927127 260.769586 
L 207.787611 262.141391 
L 209.648096 263.241314 
L 211.50858 264.125988 
L 214.299307 265.130697 
L 217.090034 265.81946 
L 219.880761 266.238729 
L 222.671487 266.408634 
L 225.462214 266.326561 
L 228.252941 265.964544 
L 230.113425 265.538103 
L 231.97391 264.92718 
L 233.834394 264.080061 
L 235.694879 262.912398 
L 236.625121 262.166586 
L 237.555363 261.278356 
L 238.485606 260.208893 
L 239.415848 258.901813 
L 240.34609 257.271529 
L 241.276332 255.180579 
L 242.206575 252.390869 
L 243.136817 248.444003 
L 244.067059 242.304113 
L 244.997301 230.882443 
L 245.927544 196.318078 
L 246.857786 284.689077 
L 257.090451 285.086484 
L 268.253358 285.295689 
L 280.346507 285.300129 
L 292.439656 285.075573 
L 302.672321 284.675881 
L 311.974743 284.089953 
L 319.416681 283.403618 
L 325.928377 282.56772 
L 330.579588 281.772879 
L 335.2308 280.733646 
L 338.021526 279.943358 
L 338.951769 108.05801 
L 339.882011 200.86131 
L 340.812253 219.301833 
L 341.742495 227.902026 
L 342.672738 232.882428 
L 343.60298 236.040357 
L 344.533222 238.108464 
L 345.463464 239.443818 
L 346.393707 240.239089 
L 347.323949 240.603368 
L 348.254191 240.597652 
L 349.184433 240.251587 
L 350.114676 239.571253 
L 351.044918 238.541776 
L 351.97516 237.126072 
L 352.905402 235.259512 
L 353.835645 232.838735 
L 354.765887 229.700194 
L 355.696129 225.578101 
L 356.626371 220.015814 
L 357.556614 212.156516 
L 358.486856 200.156709 
L 359.417098 179.023048 
L 360.34734 126.810988 
L 361.277583 295.488 
L 398.487273 295.488 
L 398.487273 295.488 
" clip-path="url(#p1c8604e79d)" style="fill: none; stroke: #e377c2; stroke-width: 1.5; stroke-linecap: square"/>
   </g>
   <g id="patch_3">
    <path d="M 57.6 307.584 
L 57.6 41.472 
" style="fill: none; stroke: #000000; stroke-width: 0.8; stroke-linejoin: miter; stroke-linecap: square"/>
   </g>
   <g id="patch_4">
    <path d="M 414.72 307.584 
L 414.72 41.472 
" style="fill: none; stroke: #000000; stroke-width: 0.8; stroke-linejoin: miter; stroke-linecap: square"/>
   </g>
   <g id="patch_5">
    <path d="M 57.6 307.584 
L 414.72 307.584 
" style="fill: none; stroke: #000000; stroke-width: 0.8; stroke-linejoin: miter; stroke-linecap: square"/>
   </g>
   <g id="patch_6">
    <path d="M 57.6 41.472 
L 414.72 41.472 
" style="fill: none; stroke: #000000; stroke-width: 0.8; stroke-linejoin: miter; stroke-linecap: square"/>
   </g>
  </g>
 </g>
 <defs>
  <clipPath id="p1c8604e79d">
   <rect x="57.6" y="41.472" width="357.12" height="266.112"/>
  </clipPath>
 </defs>
</svg>
